<svg id="Layer_1" data-name="Layer 1" xmlns="http://www.w3.org/2000/svg" xmlns:xlink="http://www.w3.org/1999/xlink" viewBox="0 0 768 768"><defs><style>.cls-1{fill:#282828;}.cls-2{fill:url(#linear-gradient);}.cls-3{fill:url(#linear-gradient-2);}</style><linearGradient id="linear-gradient" x1="309.48" y1="126.78" x2="458.52" y2="476.03" gradientUnits="userSpaceOnUse"><stop offset="0" stop-color="#9273d5"/><stop offset="1" stop-color="#3c6399"/></linearGradient><linearGradient id="linear-gradient-2" x1="309.48" y1="291.98" x2="458.52" y2="641.23" xlink:href="#linear-gradient"/></defs><title>favicon</title><rect class="cls-1" width="768" height="768"/><path class="cls-2" d="M568.64,260.93,424.47,116.76a57.24,57.24,0,0,0-80.94,0L199.36,260.93a57.24,57.24,0,0,0,0,80.94L343.53,486a57.24,57.24,0,0,0,80.94,0l59.41-59.4-25.59-25.59-59.41,59.4a21,21,0,0,1-29.76,0l-59.41-59.4-8.52-8.52L292.66,384l-25.58-25.59-17-17.05L225,316.29a21.05,21.05,0,0,1,0-29.78L369.11,142.35a21.05,21.05,0,0,1,29.78,0L543.05,286.52a21,21,0,0,1,0,29.77L518,341.36,543.56,367l25.08-25.08a57.24,57.24,0,0,0,0-80.94Z"/><path class="cls-3" d="M568.64,426.13,526.51,384l-25.59-25.59-8.53-8.52-8.52-8.53L424.47,282a57.24,57.24,0,0,0-80.94,0l-59.4,59.4L309.71,367l59.4-59.4a21.05,21.05,0,0,1,29.78,0l59.4,59.4,8.52,8.52,8.53,8.53,25.58,25.59,8.52,8.52,8.53,8.53,25.08,25.08a21,21,0,0,1,0,29.77L398.88,625.65a21,21,0,0,1-29.76,0L225,481.49a21.05,21.05,0,0,1,0-29.78L250,426.64l-25.59-25.59-25.08,25.08a57.24,57.24,0,0,0,0,80.94L343.53,651.24a57.24,57.24,0,0,0,80.94,0L568.64,507.07a57.24,57.24,0,0,0,0-80.94Z"/></svg>