<svg id="Layer_1" data-name="Layer 1" xmlns="http://www.w3.org/2000/svg" viewBox="0 0 512 512"><defs><style>.cls-1{fill:#fff;}</style></defs><title>linkedin</title><path class="cls-1" d="M437,0H75A75.08,75.08,0,0,0,0,75V437a75.08,75.08,0,0,0,75,75H437a75.08,75.08,0,0,0,75-75V75A75.08,75.08,0,0,0,437,0Zm45,437a45.05,45.05,0,0,1-45,45H75a45.05,45.05,0,0,1-45-45V75A45.05,45.05,0,0,1,75,30H437a45.05,45.05,0,0,1,45,45Z"/><path class="cls-1" d="M271,287a30,30,0,0,1,60,0V407h60V276.69c0-43.14-34.31-79.65-75-79.69-19.07,0-29.28,6.42-45,11.31V197H211V407h60Z"/><rect class="cls-1" x="121" y="107" width="60" height="60"/><rect class="cls-1" x="121" y="197" width="60" height="210"/></svg>