<svg id="Layer_1" data-name="Layer 1" xmlns="http://www.w3.org/2000/svg" viewBox="0 0 14.25 14.25"><defs><style>.cls-1{fill:#efefef;}.cls-2{fill:#282827;}</style></defs><title>phone</title><circle class="cls-1" cx="7.13" cy="7.13" r="7.13"/><path class="cls-2" d="M410.83,383.47a3.69,3.69,0,0,1-1.15-.18.51.51,0,0,0-.51.1l-.72.55a4,4,0,0,1-1.8-1.8l.53-.7a.52.52,0,0,0,.13-.53,3.7,3.7,0,0,1-.19-1.15.52.52,0,0,0-.51-.52h-1.18a.52.52,0,0,0-.52.52,5.93,5.93,0,0,0,5.92,5.92.51.51,0,0,0,.51-.52V384A.51.51,0,0,0,410.83,383.47Z" transform="translate(-401 -375.34)"/></svg>